<?xml version="1.0" encoding="utf-8"?>
<svg viewBox="0 22.679 500 500" width="500" height="500" xmlns="http://www.w3.org/2000/svg">
  <path style="stroke: rgb(0, 0, 0); stroke-width: 5px; fill: rgb(235, 197, 114);" d="M 432.214 297.145 C 432.214 297.145 416.529 383.938 342.182 385.529 C 267.835 387.12 359.393 408.058 359.393 408.058 C 359.393 408.058 452.771 381.842 432.214 297.145 Z" id="tail"/>
  <path style="stroke: rgb(0, 0, 0); stroke-width: 5px; fill: rgb(235, 197, 114);" d="M 400.74 283.449 C 400.74 283.449 395.043 389.547 320.696 391.138 C 246.349 392.729 358.498 407.925 358.498 407.925 C 358.498 407.925 421.297 368.146 400.74 283.449 Z" id="tail-wag" opacity="0">
    <title>tail-wag</title>
  </path>
  <g style="">
    <path d="M 331.553 438.838 A 91.829 48.8 0 0 1 239.724 487.638 A 91.829 48.8 0 0 1 147.895 438.838 A 91.829 48.8 0 0 1 239.724 390.038 A 91.829 48.8 0 0 1 331.553 438.838 Z" style="stroke-width: 5px; stroke: rgb(0, 0, 0); fill: rgb(255, 239, 206);"/>
    <path style="stroke: rgba(0, 0, 0, 0); fill: rgb(255, 217, 135);" d="M 213.891 397.394 C 230.904 397.474 247.885 397.555 264.832 397.636 C 267.077 397.976 300.212 367.722 321.46 299.651 C 321.46 299.651 265.085 299.22 158.836 299.102 C 158.835 299.102 173.256 333.052 213.891 397.394 Z"/>
    <path style="stroke: rgb(0, 0, 0); stroke-width: 5px; fill: rgb(255, 217, 135);" d="M 342.929 385.98 C 378.408 425.526 375.291 461.705 333.578 494.516"/>
    <path style="stroke: rgb(0, 0, 0); stroke-width: 5px; fill: rgb(255, 217, 135);" d="M 285.505 520.157 C 260.829 466.146 257.467 398.766 275.42 318.018 C 277.696 307.782 286.357 301.871 301.402 300.284 C 310.629 299.311 318.821 303.666 325.978 313.35 C 339.527 331.682 344.687 368.061 341.459 422.488" transform="matrix(-1, 0, 0, -1, 606.469666, 820.307709)"/>
    <path style="stroke: rgb(0, 0, 0); stroke-width: 5px; fill: rgb(255, 217, 135);" d="M 121.347 496.417 C 156.826 456.871 153.709 420.692 111.996 387.881" transform="matrix(-1, 0, 0, -1, 257.803299, 884.298004)"/>
    <path style="stroke: rgb(0, 0, 0); stroke-width: 5px; fill: rgb(255, 217, 135);" d="M 157.867 297.529 C 133.191 351.54 129.303 420.334 147.256 501.082 C 149.532 511.318 158.193 517.229 173.238 518.816 C 182.465 519.789 190.657 515.434 197.814 505.75 C 211.362 487.418 216.523 451.039 213.295 396.612"/>
    <path style="stroke: rgb(0, 0, 0); stroke-width: 5px; stroke-linecap: round; fill: rgb(255, 217, 135);" d="M 208.641 396.717 C 226.79 401.222 252.766 401.244 270.136 396.659"/>
  </g>
  <path d="M 365.434 215.319 C 365.434 274.9248839102382 309.7753832447147 323.245 241.117 323.245 C 172.45861675528528 323.245 116.80000000000001 274.9248839102382 116.8 215.319 C 116.79999999999998 155.7131160897618 172.45861675528528 107.39300000000001 241.117 107.393 C 309.7753832447147 107.393 365.434 155.7131160897618 365.434 215.319 Z" style="stroke-linecap: round; stroke: rgb(0, 0, 0); stroke-width: 5px; fill: rgb(255, 217, 135);"/>
  <path id="path346" style="fill-rule: evenodd;" d="M 241.529 259.255 C 245.488 259.375 248.713 256.983 251.178 252.067 C 253.759 247.148 253.454 244.307 250.291 243.506 C 249.495 243.268 247.665 243.506 244.793 244.189 C 242.314 244.756 239.891 244.473 237.51 243.334 C 235.523 242.419 233.857 242.585 232.464 243.858 C 231.073 245.111 230.736 246.931 231.417 249.323 C 231.911 251.498 233.551 253.773 236.322 256.178 C 238.699 258.236 240.428 259.255 241.529 259.255 Z"/>
  <path style="stroke: rgb(0, 0, 0); stroke-width: 5px; fill: rgb(235, 197, 114);" d="M 320.085 129.073 C 320.085 129.073 330.871 237.368 352.819 261.663 C 374.768 285.957 409.33 194.076 417.935 157.161 C 426.539 120.245 327.772 66.084 322.968 73.971 C 318.164 81.858 315.971 70.79 298.285 116.682"/>
  <path style="stroke: rgb(0, 0, 0); stroke-width: 5px; fill: rgb(235, 197, 114);" d="M 83.969 210.998 C 83.969 210.998 95.782 102.81 117.96 78.725 C 140.138 54.64 173.827 146.845 182.081 183.84 C 190.335 220.835 91.059 274.057 86.33 266.125 C 81.601 258.193 79.303 269.239 62.053 223.182" transform="matrix(-0.999955, 0.009485, -0.009485, -0.999955, 246.236221, 340.518768)"/>
  <g style="" transform="matrix(0.359606, 0, 0, 0.376671, 170.238983, 117.78141)">
    <path style="stroke: rgb(0, 0, 0); stroke-linecap: round; fill: rgba(255, 255, 255, 0); stroke-width: 13.5818px;" d="M 225.026 375.254 C 263.605 375.225 287.748 416.969 268.484 450.394 C 259.439 466.087 242.629 475.679 224.517 475.481" transform="matrix(0, 1, -1, 0, 675.254517, 175.48349)"/>
    <path style="stroke: rgb(0, 0, 0); stroke-linecap: round; fill: rgba(255, 255, 255, 0); stroke-width: 13.5818px;" d="M 125.026 475.484 C 163.605 475.513 187.748 433.769 168.484 400.344 C 159.439 384.651 142.629 375.059 124.517 375.257" transform="matrix(0, 1, -1, 0, 575.254509, 275.483467)"/>
  </g>
  <path d="M 204.575 208.6 C 204.575 219.69208691560164 198.6879921755251 228.684 191.426 228.684 C 184.16400782447488 228.684 178.277 219.69208691560164 178.277 208.6 C 178.277 197.50791308439835 184.16400782447488 188.516 191.426 188.516 C 198.6879921755251 188.516 204.575 197.50791308439835 204.575 208.6 Z" style="fill: rgb(15, 15, 15);" id="eye-left"/>
  <path d="M 303.864 207.816 A 13.149 20.084 0 0 1 290.715 227.9 A 13.149 20.084 0 0 1 277.566 207.816 A 13.149 20.084 0 0 1 290.715 187.732 A 13.149 20.084 0 0 1 303.864 207.816 Z" style="" id="eye-right"/>
  <ellipse style="fill: rgb(255, 255, 255);" cx="188.404" cy="200.048" rx="2.82" ry="3.427" id="sparkle-left"/>
  <ellipse style="fill: rgb(255, 255, 255);" cx="287.461" cy="198.982" rx="2.82" ry="3.427" id="sparkle-right"/>
</svg>